<svg width="28" height="30" viewBox="0 0 28 30" fill="none" xmlns="http://www.w3.org/2000/svg">
<g filter="url(#filter0_d_544_144)">
<path d="M4 6C4 3.79086 5.79086 2 8 2H20C22.2091 2 24 3.79086 24 6V17.7919C24 19.4275 23.0042 20.8983 21.4856 21.5058L15.4856 23.9058C14.5319 24.2872 13.4681 24.2872 12.5144 23.9058L6.51444 21.5058C4.99581 20.8983 4 19.4275 4 17.7919V6Z" fill="white"/>
<path d="M6 7C6 5.34315 7.34315 4 9 4H19C20.6569 4 22 5.34315 22 7V17.6577C22 19.0343 21.0631 20.2342 19.7276 20.5681L14.7276 21.8181C14.2499 21.9375 13.7501 21.9375 13.2724 21.8181L8.27239 20.5681C6.93689 20.2342 6 19.0343 6 17.6577V7Z" fill="#656565"/>
<path d="M14 6.24C11.6149 6.24 9.68 8.13816 9.68 10.4794V17.76H18.32V10.4794C18.32 8.13816 16.3866 6.24 14 6.24Z" fill="white"/>
</g>
<defs>
<filter id="filter0_d_544_144" x="0.6" y="0.6" width="26.8" height="28.9914" filterUnits="userSpaceOnUse" color-interpolation-filters="sRGB">
<feFlood flood-opacity="0" result="BackgroundImageFix"/>
<feColorMatrix in="SourceAlpha" type="matrix" values="0 0 0 0 0 0 0 0 0 0 0 0 0 0 0 0 0 0 127 0" result="hardAlpha"/>
<feOffset dy="2"/>
<feGaussianBlur stdDeviation="1.7"/>
<feComposite in2="hardAlpha" operator="out"/>
<feColorMatrix type="matrix" values="0 0 0 0 0 0 0 0 0 0 0 0 0 0 0 0 0 0 0.25 0"/>
<feBlend mode="normal" in2="BackgroundImageFix" result="effect1_dropShadow_544_144"/>
<feBlend mode="normal" in="SourceGraphic" in2="effect1_dropShadow_544_144" result="shape"/>
</filter>
</defs>
</svg>
