<svg width="24" height="24" viewBox="0 0 24 24" fill="none" xmlns="http://www.w3.org/2000/svg">
<mask id="mask0_238_178" style="mask-type:alpha" maskUnits="userSpaceOnUse" x="0" y="0" width="24" height="24">
<rect width="24" height="24" fill="#D9D9D9"/>
</mask>
<g mask="url(#mask0_238_178)">
<g filter="url(#filter0_i_238_178)">
<path d="M12 22C11.7667 22 11.5333 21.9569 11.3 21.8706C11.0667 21.7844 10.8583 21.655 10.675 21.4825C9.59167 20.4476 8.63333 19.4386 7.8 18.4554C6.96667 17.4722 6.27083 16.5192 5.7125 15.5964C5.15417 14.6736 4.72917 13.7853 4.4375 12.9314C4.14583 12.0776 4 11.2626 4 10.4864C4 7.89909 4.80417 5.83786 6.4125 4.30272C8.02083 2.76757 9.88333 2 12 2C14.1167 2 15.9792 2.76757 17.5875 4.30272C19.1958 5.83786 20 7.89909 20 10.4864C20 11.2626 19.8542 12.0776 19.5625 12.9314C19.2708 13.7853 18.8458 14.6736 18.2875 15.5964C17.7292 16.5192 17.0333 17.4722 16.2 18.4554C15.3667 19.4386 14.4083 20.4476 13.325 21.4825C13.1417 21.655 12.9333 21.7844 12.7 21.8706C12.4667 21.9569 12.2333 22 12 22Z" fill="#969696"/>
</g>
</g>
<g clip-path="url(#clip0_238_178)">
<path d="M12.1247 5.8326H11.9997C11.4525 5.8326 10.9107 5.94037 10.4052 6.14977C9.89964 6.35916 9.44031 6.66608 9.0534 7.05299C8.27199 7.83439 7.83301 8.8942 7.83301 9.99927C7.83301 11.1043 8.27199 12.1641 9.0534 12.9455C9.44031 13.3325 9.89964 13.6394 10.4052 13.8488C10.9107 14.0582 11.4525 14.1659 11.9997 14.1659C13.2497 14.1659 13.958 13.7493 14.708 13.1243C12.4163 13.7493 10.333 12.0826 10.333 9.99927C10.333 7.91593 12.4163 6.24927 14.708 6.87427C14.3693 6.53622 13.966 6.26978 13.5222 6.09082C13.0784 5.91187 12.6031 5.82405 12.1247 5.8326ZM13.9997 7.5826L13.3747 9.04093L11.833 9.16593L13.0413 10.2076L12.6663 11.6659L13.9997 10.8326L15.333 11.6659L14.9163 10.2076L16.1663 9.16593L14.6247 9.04093L13.9997 7.5826Z" fill="white"/>
</g>
<defs>
<filter id="filter0_i_238_178" x="4" y="2" width="16" height="22" filterUnits="userSpaceOnUse" color-interpolation-filters="sRGB">
<feFlood flood-opacity="0" result="BackgroundImageFix"/>
<feBlend mode="normal" in="SourceGraphic" in2="BackgroundImageFix" result="shape"/>
<feColorMatrix in="SourceAlpha" type="matrix" values="0 0 0 0 0 0 0 0 0 0 0 0 0 0 0 0 0 0 127 0" result="hardAlpha"/>
<feOffset dy="2"/>
<feGaussianBlur stdDeviation="2"/>
<feComposite in2="hardAlpha" operator="arithmetic" k2="-1" k3="1"/>
<feColorMatrix type="matrix" values="0 0 0 0 1 0 0 0 0 1 0 0 0 0 1 0 0 0 0.5 0"/>
<feBlend mode="normal" in2="shape" result="effect1_innerShadow_238_178"/>
</filter>
<clipPath id="clip0_238_178">
<rect width="10" height="10" fill="white" transform="translate(7 5)"/>
</clipPath>
</defs>
</svg>
