<svg width="24" height="24" viewBox="0 0 24 24" fill="none" xmlns="http://www.w3.org/2000/svg">
<mask id="mask0_238_138" style="mask-type:alpha" maskUnits="userSpaceOnUse" x="0" y="0" width="24" height="24">
<rect width="24" height="24" fill="#D9D9D9"/>
</mask>
<g mask="url(#mask0_238_138)">
<g filter="url(#filter0_i_238_138)">
<path d="M12 22C11.7667 22 11.5333 21.9569 11.3 21.8706C11.0667 21.7844 10.8583 21.655 10.675 21.4825C9.59167 20.4476 8.63333 19.4386 7.8 18.4554C6.96667 17.4722 6.27083 16.5192 5.7125 15.5964C5.15417 14.6736 4.72917 13.7853 4.4375 12.9314C4.14583 12.0776 4 11.2626 4 10.4864C4 7.89909 4.80417 5.83786 6.4125 4.30272C8.02083 2.76757 9.88333 2 12 2C14.1167 2 15.9792 2.76757 17.5875 4.30272C19.1958 5.83786 20 7.89909 20 10.4864C20 11.2626 19.8542 12.0776 19.5625 12.9314C19.2708 13.7853 18.8458 14.6736 18.2875 15.5964C17.7292 16.5192 17.0333 17.4722 16.2 18.4554C15.3667 19.4386 14.4083 20.4476 13.325 21.4825C13.1417 21.655 12.9333 21.7844 12.7 21.8706C12.4667 21.9569 12.2333 22 12 22Z" fill="#FFBC2A"/>
</g>
</g>
<mask id="mask1_238_138" style="mask-type:alpha" maskUnits="userSpaceOnUse" x="7" y="5" width="10" height="10">
<rect x="7" y="5" width="10" height="10" fill="#D9D9D9"/>
</mask>
<g mask="url(#mask1_238_138)">
<path d="M9.91699 14.1673C9.68783 14.1673 9.49164 14.0857 9.32845 13.9225C9.16526 13.7593 9.08366 13.5632 9.08366 13.334C9.08366 13.1048 9.16526 12.9086 9.32845 12.7454C9.49164 12.5822 9.68783 12.5007 9.91699 12.5007C10.1462 12.5007 10.3423 12.5822 10.5055 12.7454C10.6687 12.9086 10.7503 13.1048 10.7503 13.334C10.7503 13.5632 10.6687 13.7593 10.5055 13.9225C10.3423 14.0857 10.1462 14.1673 9.91699 14.1673ZM14.0837 14.1673C13.8545 14.1673 13.6583 14.0857 13.4951 13.9225C13.3319 13.7593 13.2503 13.5632 13.2503 13.334C13.2503 13.1048 13.3319 12.9086 13.4951 12.7454C13.6583 12.5822 13.8545 12.5007 14.0837 12.5007C14.3128 12.5007 14.509 12.5822 14.6722 12.7454C14.8354 12.9086 14.917 13.1048 14.917 13.334C14.917 13.5632 14.8354 13.7593 14.6722 13.9225C14.509 14.0857 14.3128 14.1673 14.0837 14.1673ZM9.56283 7.50065L10.5628 9.58398H13.4795L14.6253 7.50065H9.56283ZM9.16699 6.66732H15.3128C15.4725 6.66732 15.5941 6.7385 15.6774 6.88086C15.7607 7.02322 15.7642 7.16732 15.6878 7.31315L14.2087 9.97982C14.1323 10.1187 14.0298 10.2263 13.9014 10.3027C13.7729 10.3791 13.6323 10.4173 13.4795 10.4173H10.3753L9.91699 11.2507H14.5003C14.6184 11.2507 14.7173 11.2906 14.7972 11.3704C14.8771 11.4503 14.917 11.5493 14.917 11.6673C14.917 11.7854 14.8771 11.8843 14.7972 11.9642C14.7173 12.0441 14.6184 12.084 14.5003 12.084H9.91699C9.60449 12.084 9.36838 11.9468 9.20866 11.6725C9.04894 11.3982 9.04199 11.1257 9.18783 10.8548L9.75033 9.83398L8.25033 6.66732H7.83366C7.7156 6.66732 7.61664 6.62739 7.53678 6.54753C7.45692 6.46766 7.41699 6.36871 7.41699 6.25065C7.41699 6.1326 7.45692 6.03364 7.53678 5.95378C7.61664 5.87391 7.7156 5.83398 7.83366 5.83398H8.51074C8.58713 5.83398 8.66005 5.85482 8.72949 5.89648C8.79894 5.93815 8.85102 5.99718 8.88574 6.07357L9.16699 6.66732Z" fill="white"/>
</g>
<defs>
<filter id="filter0_i_238_138" x="4" y="2" width="16" height="22" filterUnits="userSpaceOnUse" color-interpolation-filters="sRGB">
<feFlood flood-opacity="0" result="BackgroundImageFix"/>
<feBlend mode="normal" in="SourceGraphic" in2="BackgroundImageFix" result="shape"/>
<feColorMatrix in="SourceAlpha" type="matrix" values="0 0 0 0 0 0 0 0 0 0 0 0 0 0 0 0 0 0 127 0" result="hardAlpha"/>
<feOffset dy="2"/>
<feGaussianBlur stdDeviation="2"/>
<feComposite in2="hardAlpha" operator="arithmetic" k2="-1" k3="1"/>
<feColorMatrix type="matrix" values="0 0 0 0 1 0 0 0 0 1 0 0 0 0 1 0 0 0 0.5 0"/>
<feBlend mode="normal" in2="shape" result="effect1_innerShadow_238_138"/>
</filter>
</defs>
</svg>
