<svg width="28" height="30" viewBox="0 0 28 30" fill="none" xmlns="http://www.w3.org/2000/svg">
<g filter="url(#filter0_d_705_47)">
<path d="M4 5.8623C4 3.65317 5.79086 1.8623 8 1.8623H20C22.2091 1.8623 24 3.65317 24 5.8623V17.6542C24 19.2898 23.0042 20.7606 21.4856 21.3681L15.4856 23.7681C14.5319 24.1495 13.4681 24.1495 12.5144 23.7681L6.51444 21.3681C4.99581 20.7606 4 19.2898 4 17.6542V5.8623Z" fill="#010102"/>
<path d="M6 6.8623C6 5.20545 7.34315 3.8623 9 3.8623H19C20.6569 3.8623 22 5.20545 22 6.8623V17.52C22 18.8966 21.0631 20.0965 19.7276 20.4304L14.7276 21.6804C14.2499 21.7998 13.7501 21.7998 13.2724 21.6804L8.27239 20.4304C6.93689 20.0965 6 18.8966 6 17.52V6.8623Z" fill="#FFCC5D"/>
<path d="M11 16.8623C10.725 16.8623 10.4896 16.7644 10.2937 16.5686C10.0979 16.3727 10 16.1373 10 15.8623V9.8623C10 9.5873 10.0979 9.35189 10.2937 9.15605C10.4896 8.96022 10.725 8.8623 11 8.8623H12C12 8.3123 12.1958 7.84147 12.5875 7.4498C12.9792 7.05814 13.45 6.8623 14 6.8623C14.55 6.8623 15.0208 7.05814 15.4125 7.4498C15.8042 7.84147 16 8.3123 16 8.8623H17C17.275 8.8623 17.5104 8.96022 17.7063 9.15605C17.9021 9.35189 18 9.5873 18 9.8623V15.8623C18 16.1373 17.9021 16.3727 17.7063 16.5686C17.5104 16.7644 17.275 16.8623 17 16.8623H11ZM11 15.8623H17V9.8623H16V10.8623C16 11.004 15.9521 11.1227 15.8563 11.2186C15.7604 11.3144 15.6417 11.3623 15.5 11.3623C15.3583 11.3623 15.2396 11.3144 15.1438 11.2186C15.0479 11.1227 15 11.004 15 10.8623V9.8623H13V10.8623C13 11.004 12.9521 11.1227 12.8562 11.2186C12.7604 11.3144 12.6417 11.3623 12.5 11.3623C12.3583 11.3623 12.2396 11.3144 12.1438 11.2186C12.0479 11.1227 12 11.004 12 10.8623V9.8623H11V15.8623ZM13 8.8623H15C15 8.5873 14.9021 8.35189 14.7063 8.15605C14.5104 7.96022 14.275 7.8623 14 7.8623C13.725 7.8623 13.4896 7.96022 13.2937 8.15605C13.0979 8.35189 13 8.5873 13 8.8623Z" fill="#010102"/>
</g>
<defs>
<filter id="filter0_d_705_47" x="0.6" y="0.462305" width="26.8" height="28.9919" filterUnits="userSpaceOnUse" color-interpolation-filters="sRGB">
<feFlood flood-opacity="0" result="BackgroundImageFix"/>
<feColorMatrix in="SourceAlpha" type="matrix" values="0 0 0 0 0 0 0 0 0 0 0 0 0 0 0 0 0 0 127 0" result="hardAlpha"/>
<feOffset dy="2"/>
<feGaussianBlur stdDeviation="1.7"/>
<feComposite in2="hardAlpha" operator="out"/>
<feColorMatrix type="matrix" values="0 0 0 0 0 0 0 0 0 0 0 0 0 0 0 0 0 0 0.25 0"/>
<feBlend mode="normal" in2="BackgroundImageFix" result="effect1_dropShadow_705_47"/>
<feBlend mode="normal" in="SourceGraphic" in2="effect1_dropShadow_705_47" result="shape"/>
</filter>
</defs>
</svg>
